<svg width="46" height="89" viewBox="0 0 46 89" fill="none" xmlns="http://www.w3.org/2000/svg">
<rect x="2.94595" y="2.94595" width="40.0541" height="61.1081" rx="20.027" stroke="black" stroke-width="4.10811"/>
<rect x="19.8919" y="12.1892" width="5.64865" height="12.3243" rx="2.82432" fill="black"/>
<path d="M22.2929 88.7071C22.6834 89.0976 23.3166 89.0976 23.7071 88.7071L30.0711 82.3431C30.4616 81.9526 30.4616 81.3195 30.0711 80.9289C29.6805 80.5384 29.0474 80.5384 28.6569 80.9289L23 86.5858L17.3431 80.9289C16.9526 80.5384 16.3195 80.5384 15.9289 80.9289C15.5384 81.3195 15.5384 81.9526 15.9289 82.3431L22.2929 88.7071ZM22 77L22 88L24 88L24 77L22 77Z" fill="black"/>
</svg>
